STARTFONT 2.1
COMMENT
COMMENT Converted from OpenType font "Q:\font stuff\winfont\AlliedEngineGreased.otf" by "otf2bdf 3.0".
COMMENT
FONT -FreeType-AlliedEngine Greased-Medium-R-Normal--96-960-72-72-P-770-ISO10646-1
SIZE 96 72 72
FONTBOUNDINGBOX 218 96 -122 0
STARTPROPERTIES 19
FOUNDRY "FreeType"
FAMILY_NAME "AlliedEngine Greased"
WEIGHT_NAME "Medium"
SLANT "R"
SETWIDTH_NAME "Normal"
ADD_STYLE_NAME ""
PIXEL_SIZE 80
POINT_SIZE 960
RESOLUTION_X 72
RESOLUTION_Y 72
SPACING "P"
AVERAGE_WIDTH 770
CHARSET_REGISTRY "ISO10646"
CHARSET_ENCODING "1"
FONT_ASCENT 126
FONT_DESCENT 0
COPYRIGHT "¨1995 paula grech and david weissberg. Varoooooooooom!!!!"
_OTF_FONTFILE "Q:\font stuff\winfont\AlliedEngineGreased.otf"
_OTF_PSNAME "AlliedEngineGreased"
ENDPROPERTIES
CHARS 36
STARTCHAR 0030
ENCODING 48
SWIDTH 510 0
DWIDTH 49 0
BBX 49 95 1 -17
BITMAP
00003000000000
0000F800000000
0007F800000000
000FF000000000
000FF000000000
001FE000000000
003FE003000000
007FC007FC0000
00FFC007E00000
01FF8003800000
01FFC003870000
03FFC0038F8000
03FF8001878000
02FF000183C000
00FE000001E000
00FC000061E000
01FC0000F4F000
01FC000076F000
03FC00003F7000
03F800001F7800
07F800000F3800
07F80000073800
07F8000007B800
0FB8000003BC00
0FB0000003BC00
1DB0000001DC00
1DB0000000DC00
1FF0000000DC00
1F700000005C00
1F700000005E00
1F700000003E00
1F300000003E00
1F000000003E00
1F000000001E00
1E000000001E00
1E000000001E00
1E000000001E00
1E000000001E00
1E000000001E00
1E000000001E00
1C000000001E00
1C000000001E00
1C000000001E00
1C000000001E00
1C000000001E00
1C000000001E00
1C000000001E00
3C000000001E00
7C000000001E00
7C000000001E00
7C000000001E00
7C000000001F00
7C000000001F00
7C000000001F00
7C000000001F00
7C000000001F00
7C000000001F00
FC000000001F00
FC300000001F00
FC300000001F00
FC300000001F00
FC780000001F00
FC780000001F00
7C780000001F80
7F680000001F80
7FE00000001F80
7FC00000001F80
3FC00000001F80
3FC00000001F80
3FC00000001F80
3F800000001F00
3F000000001F00
2F000000001F00
67000000001F00
33000000001F00
3B000000001F00
3B000000021F00
39820000061E00
38010000061E00
1801C0000C1E00
1C01E0000C3C00
1C60F000183C00
0EE6F00031B800
0E67700061F800
0777F00041F000
07F3F000C3E000
03F9F00083C000
01F8F00087C000
00FC7000CF8000
003FF001FF0000
000FF001FE0000
0007F001FC0000
0007F003F00000
0003F007E00000
0001F003000000
ENDCHAR
STARTCHAR 0031
ENCODING 49
SWIDTH 312 0
DWIDTH 30 0
BBX 27 96 2 -20
BITMAP
00000800
00001E00
00001F00
00003F80
00003FC0
00007FC0
00007FC0
0000FFC0
00007FC0
00007FC0
00007FC0
00007FC0
00007FC0
00107FC0
0070FFC0
00F17FC0
01E37FC0
03C7FFC0
078FFEC0
0F1F7CC0
1E3C78C0
3C7878C0
79F070C0
FBE07080
FFC07800
FFC07800
7F007C00
3E007E00
10007E00
00007F00
00007F00
00007F80
00004F80
00000FC0
00000700
00000300
00000000
00000000
00000000
00000000
00000000
00000000
00000000
00000000
00000000
00000000
00000000
00000000
00000000
00000000
00000000
00000000
00000000
00000000
00000000
00000000
00000000
00003000
00007000
00007000
00007000
00007000
00007000
00007000
00007000
00007000
00007000
00007000
00007000
00007000
00007000
00007000
00007000
00007000
00007000
00007000
00007000
00007000
00007000
00007000
00007000
00007000
00007080
000070C0
000070C0
000070C0
000070C0
000070C0
000070C0
000070E0
000030E0
000030E0
000038E0
00001FC0
00001FC0
00000F80
ENDCHAR
STARTCHAR 0032
ENCODING 50
SWIDTH 552 0
DWIDTH 53 0
BBX 53 96 -1 -19
BITMAP
000000F0000000
00001FFFE00000
0000FFFFF00000
0003FFFFFC0000
0007F83FFE0000
000FF03FFF0000
003CE07FFF8000
00F1E0E0FFC000
00C3C0003FF000
018780000FF800
0107000003FC00
000F000000FE00
001E0000003F00
003C0000001F00
1C7C0000000F80
38F800000007C0
70F000000183E0
71F0000000E1E0
F3E0000000E1E0
7FC0000000F1E0
7F8000000073F0
3F000000007FF0
3F000000007FF8
0C000000007FF8
00000000003FF8
00000000003FF8
00000000001FF8
00000000001FF8
00000000000FF8
00000000000BF8
000000000007F0
000000000007F0
00000000000FF0
00000000001F70
00000000003E60
00000000007E60
00000000007C60
0000000000FCC0
0000000000F8C0
0000000001D980
00000000039180
00000000079000
00000000071000
000000000E0000
000000001E1000
000000003C3000
000000007D3000
0000000071E000
00000000F3E000
00000000C3C000
00000001878000
000000030F8000
000000060F0000
000000061E0000
0000000C3C0000
00000018380000
00000030700000
00000020700000
00000060E00000
000001C1C00000
000001C3C00000
00000393800000
0000071F000000
00000F1F000000
00000E3E000000
00001E7C000000
00003C7C000000
000038F8000000
000071F0000000
0000C1F0000000
0001C3E0000000
0003C7C0000000
000387C0000000
00070F80000000
000E1F80000000
001C1E00000000
00183000000000
00303800000000
00703000000000
00F04000000000
01F04000000000
01F0C000000000
0FF0E000000000
0FF8E000000000
1FFFE000000000
3FFFF2E0000400
1FFFFFFF001E00
1FFFFFFE003FE0
3FFFFE08001FF0
3FFFFA00001FF8
3FFFFC00000FF8
7FFC00000007F0
7FFC00000003E0
37FF00000000C0
2F9F0000000000
37000000000000
ENDCHAR
STARTCHAR 0033
ENCODING 51
SWIDTH 572 0
DWIDTH 55 0
BBX 51 96 2 -20
BITMAP
000001E0000000
00001FFF000000
0000FFFFE00000
0001FFFFF80000
000FFFFFFE0000
000FFFFFFF8000
001FFFFFFFC000
007FFFFFFFE000
00FFFFFFFFF800
01FFFFFFFFFC00
03FFFFFFFFFE00
07FFF001FFFE00
0FFFC0007FFF00
1FFF00001FFF80
1FFE00000FFF80
3FFC000003FFC0
3FFC000001FE00
3FF8000001FC00
3FF0000000F800
3FF0000000F800
1FE0000000F800
0F800000007800
00000000007800
00000000007800
00000000007800
00000000007800
00000000007800
00000000007800
00000000007800
000000000071C0
000000000073C0
000000000073E0
0000000000F7E0
0000000000E7E0
0000000001FFC0
0000000001DFC0
0000000003DFC0
0000000007DF80
000000000FDF80
000000004FFF00
000000003FBF00
000000003FBE00
000000003FFC00
00000E007FF800
00000E007FF000
00001F00FFF000
00001F00FFF000
00000F00FFF800
00000FC1FFF800
000007FFFFFC00
000003FFFFFE00
000001FFFFFF00
00000041FFFF00
00000000FFFF80
000000003FFF80
0000000007FF80
0000000003FE00
00000000017F00
00000000007F80
00000000007F80
00000000007FC0
00000000003EC0
00000000003CE0
00000000001CE0
00000000001CE0
00000000001C60
00000000001C60
00000000001860
00000000001860
00000000001860
00000000000860
00000000000060
00000000000060
00000000000060
30000000000060
78000000002040
7E000000007FC0
FF800000007FC0
FFE0000000FFC0
7FF8000000FFC0
7FFC000000FF80
3FFE000000FF80
3DFF000000FF00
1E7F800001FF00
1E3FC00001FF00
0F07F000009E00
0783FFFC003C00
03C0BFFF007800
01F03FFFC0F800
00FC07FFE1F000
007E007FFFE000
001F8027FFC000
000FF823FF8000
0003FFEFFE0000
0000FFFFFC0000
00001FFF800000
ENDCHAR
STARTCHAR 0034
ENCODING 52
SWIDTH 625 0
DWIDTH 60 0
BBX 55 90 2 -14
BITMAP
00000001C00000
00000007E00000
0000000FC00000
0000001F800000
0000001F000000
0000003F000000
0000007E600000
000000DCE00000
0000009DE00000
0000017BE00000
000001F3C00000
000001F3C00000
000001E7800000
000001C7000000
00000187000000
00000186000000
00000000000000
00000040000000
000003C0000000
00000380000000
00000380000000
00000300000000
00000300000000
00000300000000
00000300000000
00000300000000
00000300000000
00000700000000
00000700000000
00000F00000000
00000F00000000
00000F00000000
00000F00000000
00001F00000000
00001F00000000
00001F00000000
00003F00000000
00003F00000000
00003F00000000
00003E00000000
00007E00000000
00007C00000000
0000FC00000000
0000FC00000000
0000F800000000
0000F800000000
0000F000000000
0000F000000000
0001E000000000
0003E000000000
0003E000000000
0063C000000000
00E7C000000000
01F7C000000000
01F78000000000
01FF8000006000
01FF00000EE000
03FF00000FF000
03FF00000FF000
03FE00000FF000
03FE00000FF000
03FE00000FF000
03FC00000FF000
03FC00000FF000
01FC00000FF000
01FC00001FF000
3DFE00001FF800
3FFFFFFFFFF804
3FFFFFFFFFF01E
7FFFFFFFFFF03E
FFFFFFFFFFF07E
FFFFFFFFFFF1FE
FFFFFFFFFFF3FC
7FFFFFFFFFFFF0
7FFFFFFFFFFFC0
7FFFFFFFFFFF00
7FFFFFFFFFFC00
000000000E1000
000000000F3000
000000000F3000
000000000FB000
000000000FF000
000000000FF000
000000000FF000
000000000FF000
000000000FF000
000000000FE000
000000000FE000
0000000007C000
00000000038000
ENDCHAR
STARTCHAR 0035
ENCODING 53
SWIDTH 593 0
DWIDTH 57 0
BBX 56 93 1 -18
BITMAP
0FFFFFFFFFFFF0
3FFFFFFFFFFFFC
7FFFFFFFFFFFFE
FFFFC0000000FF
FFFF800000001F
FFFE000000007E
FFFC0000007FFE
7FF8000000FFF8
7FFC000003FFE0
7FFC000007FE00
7FE00000000000
7FC00000000000
3FC00000000000
3FC00000000000
1FC00000000000
1BC00000000000
1C400000000000
1C400000000000
1C400000000000
08400000000000
00C00000000000
00C00000000000
00C00000000000
00C00000000000
00C00000000000
00C00000000000
00C00000000000
00C00000000000
00C00000000000
00C00000000000
00C00000000000
00C00000000000
00C00000000000
00C00000000000
00C00000000000
00C00000000000
7FCFFF00000000
7FEFFE00000000
3FEFFC00000000
1FFFFC00000000
0FFFFFFF000000
0FFFFFFE000000
0FFE17FE000000
0FFE0100001C00
0FFC0200001E00
0FFC0000000F00
1FF80000000F00
3FF00000000780
7FF000000003C0
3FE000000003E0
1FC000000001F0
0F8000000001F0
030000000001F0
000000000000F0
000000000000F0
000000000000F8
00000000000078
00000000000078
00000000000078
00000000000078
00000000000078
00000000000078
00000000000078
00000000000078
00000000000078
00000000000078
00000000000078
00000000000078
00000000000078
00000000000070
000000000000F0
000000000000F0
000000000000F0
000000000001E0
000000000001E0
000000000001E0
000000000003C0
000000000003C0
00000000000780
00000000000F80
00000000001F00
00000000001F00
00000000003E00
01F0000000FC00
01FE000001F800
01FFD00003F000
00FFF0080FE000
007FFFF83F8000
003FFFFFFF0000
001FFFFFFC0000
0007FFFFF00000
0001FFFF800000
000007FC000000
ENDCHAR
STARTCHAR 0036
ENCODING 54
SWIDTH 572 0
DWIDTH 55 0
BBX 50 96 3 -19
BITMAP
000003F0000000
000007FA380000
000601FFFE0000
001E0003FF8000
003E0007FFC000
007E001FE7F000
00FE003FF0F800
00FC007E783C00
01FC00FE3C1E00
03FC007C3E0600
01F800001F0300
01D800000E0180
01980000000080
019000000001C0
008000000003C0
00000000000180
00000000000000
00000000000000
00000000000000
00000000000000
00000000000000
00000000000000
00000000000000
00000000000000
00000000000000
00000000000000
00000000000000
00000000000000
00000000000000
00000000000000
00000000000000
00000000000000
00000000000000
00000000000000
00000000000000
00000000000000
00000003800000
0103C007F00000
070FE007FC0000
031FC007FE0000
073FC007FF0000
037BC003FF8000
0763C003EFC000
07C38003C3E000
05C38003C0F000
07810007E07800
07810003F03C00
0C800001F83C00
7F0000007C3E00
FF0000001C2600
FF0000000E2700
FF000000060300
FF000000030100
FF000000010100
FF000000000080
FF000000000080
FF000000000080
FF000000000080
7F000000000080
7F0000000000C0
7F0000000000C0
7F0000000000C0
7E0000000000C0
7F0000000000C0
7F0000000000C0
7F0000000000C0
7F0000000000C0
7F0000000000C0
7F0000000000C0
7F0000000000C0
FF0000000000C0
FF0000000003C0
EF0000000003C0
0F0000000003C0
4F0000000003C0
6F0000000003C0
7F0000000003C0
7F8000000003C0
7B800000000380
7FC00000000380
3FE00000000780
3FF00000000700
3FF80000000700
1FFE0000000F00
1FFF0000000E00
0FFF8000000C00
07FFC000000800
07FFE000000000
03FFF000000000
01FFE000000000
00FFE000000000
007FE000000000
003FF000000000
001FF000000000
0007E000000000
0001E000000000
ENDCHAR
STARTCHAR 0037
ENCODING 55
SWIDTH 645 0
DWIDTH 62 0
BBX 61 93 0 -18
BITMAP
38007FFFFFFFFF80
7C00FFFFFFFFFFC0
FC00FFFFFFFFFFE0
FE000000000FFFF0
FF000000001FFFF8
7F800000001FFFF8
7FC00000007FFFF8
3FFFFFFFFFFFFFF8
0FFFFFFFFFFFFFF0
03FFFFFFFFFFFFF0
000000000007FFE0
000000000003FFC0
000000000003FF80
000000000001FF80
000000000001FF00
000000000001FF00
000000000003FE00
000000000003FE00
000000000003FC00
000000000007FC00
000000000007F800
000000000006F800
00000000000EF000
00000000000CF000
00000000001CF000
000000000019E000
000000000019E000
000000000039C000
000000000033C000
0000000000338000
0000000000778000
0000000000678000
0000000000EF0000
0000000000EE0000
0000000000DE0000
0000000001FC0000
0000000001B80000
0000000001B80000
0000000001700000
0000000003700000
0000000002E00000
0000000007C00000
0000000007C00000
0000000007C00000
000000000F800000
000000000E000000
000000001C000000
0000000018000000
0000000038000000
0000000038000000
0000000070000000
00000000D0000000
0000000180000000
0000000200000000
0000000000000000
0000000000000000
0000000000000000
0000000000000000
0000000000000000
0000000000000000
0000000000000000
0000000000000000
0000000000000000
0000000200000000
0000000600000000
0000000600000000
0000000C00000000
0000000C00000000
0000001C00000000
0000001C00000000
0000007800000000
0000007800000000
0000007000000000
0000007000000000
000000E000000000
000000E000000000
000181E000000000
000181C000000000
0003838000000000
0003838000000000
0007878000000000
0007070000000000
000F0E0000000000
000E0E0000000000
001E1E0000000000
001C1C0000000000
003C3C0000000000
003C3C0000000000
003C780000000000
003EF80000000000
001FF00000000000
000FE00000000000
0003C00000000000
ENDCHAR
STARTCHAR 0038
ENCODING 56
SWIDTH 562 0
DWIDTH 54 0
BBX 52 96 1 -20
BITMAP
00000001000000
00000003E00000
00038007F80000
0003C007FE0000
00078007FF0000
00078007FF8000
00078007FFC000
00078007FFE000
000F8007FFF000
000F8007FFF800
001F0003FFFC00
001F0001FFFC00
003E0000FFFE00
03FE00007FFF00
07FC00003FFF00
07FC00001FFF80
063C00000FFF80
0E3C000007FF80
0E3C000003FFC0
0E3C000001FFC0
0C3C000001FFC0
0C3C000001FFC0
0C38000000FFC0
0C38000000FFE0
0C38000000FFE0
0C38000000FFE0
0C38000000FFE0
0C3C000000FFC0
0C3C000001FFC0
0C3C000001FFC0
0E3C000003FFC0
0E3C000003FFC0
067C000007FF80
067C00000FFF80
07FC00000FFF80
07FE00001FFF00
03FF00001FFF00
03FF80003FFE00
01FB80003FFE00
01F900003FFC00
00F800003FF800
00F800003FF000
00F800001FF000
00F800001BE000
00F8000003C000
00F8000003C000
00F8000001E000
00F8000001F000
00F8000001F000
00F8000001F800
08F8000019EC00
1DF800003DF600
1DF800003FE200
39F800001FE100
39F800000FF000
39F0000007F000
3BE0000003E000
3BC0000003F040
73C0000001F0C0
6380000000F0E0
6380000000F9E0
6700000000FDE0
67000000007BC0
67000000007BC0
46000000007B80
46000000007F80
CE000000007F00
CE000000007F20
CE000000007E20
CE000000007E30
CF000000007E30
CF000000007C30
CF00000000FC30
CF00000000FC60
EF80000000FC60
EF80000001FF60
EFC0000001FF60
FFF0000003FFE0
FFE0000003FFC0
7FF0000007FFC0
7FF8000007FFC0
3FFC00000FFF80
3FFE00001FFF80
1FFF00001FFF80
1FFF80001FFF00
0FFFC0001FFE00
07FFC0003FF800
07FFC0003FF000
03FFC0003FE000
01FFC0003FE000
00FFC0007F8000
007FC0007F0000
003FC0007E0000
000FC0007C0000
0007C000000000
0001C000000000
ENDCHAR
STARTCHAR 0039
ENCODING 57
SWIDTH 520 0
DWIDTH 50 0
BBX 48 91 0 -16
BITMAP
00007C006000
0000FE00F000
0003FE00FC00
0007FC00FE00
000FFC00FF00
001FFC00F780
001FFC00E1C0
001FF800E0E0
003FF000F070
003FF000F830
003FF0007C10
007FE0003E00
007FC0001F08
0FFF80000708
1FFF8000079C
3FFF000003DC
3FFE000001DE
3FFE000000DE
3FFC000000FE
3FFC000000FE
3FFC0000007F
3FFC0000007F
3FF80000007F
3FF80000007F
3FF80000007F
3FF800000073
3FF800000073
3FF800000077
3FF800000077
3FF80000007F
3FF80000007F
3FF80000003F
3FF80000003F
3FF80000003F
3FFC0000003F
1FFC0000003F
1FFE0000003F
1FFF00000037
0FFF80000037
0FFFC0000037
07FFC000003F
07FFE000003F
03FFF000001F
03FFF800001F
01FFFC00001F
00FFFC00001E
00FFFE00001C
007FFE00003C
003FFE0007FE
001FFE000FFF
000FFE007F9F
0003FE00FE1F
0000FC01F81F
00001C01C01F
00000000001F
00000000001F
00000000001F
00000000001F
00000000001F
00000000001F
00000000001F
00000000001F
00000000001F
00000000001F
00000000001F
00000000001F
00000000001F
00000000001F
00000000001F
00000000001F
00000000001E
00000000001E
00000000000E
00000000000E
00000000000E
00000000000C
00000000001C
00000000001C
000000000018
000000000038
000000000030
000000000060
7FF0001F8040
FFE0007F00C0
3FE001FE0180
0C0007C00200
03003F000C00
00F1FA01F000
000FFFFFC000
0001FFFF0000
00000FF00000
ENDCHAR
STARTCHAR 0041
ENCODING 65
SWIDTH 729 0
DWIDTH 70 0
BBX 62 93 2 -17
BITMAP
0000000F80000000
0000001FC0000000
0000001FE0000000
0000001FF0000000
0000001FF0000000
0000001FF0000000
0000000FF0000000
0000000FF8000000
0000000FF8000000
0000000FF8000000
00000007FC000000
00000007FC000000
00000007FC000000
00000003FC000000
00000003FE000000
00000003FE000000
00000003FE000000
00000001FF000000
00000001FF800000
00000001FFC00000
00000000FFC00000
00000200FF800000
00000700FFC00000
000007807FC00000
00000F807FC00000
00000FC07FC00000
00001FC07FE00000
00001FC03FE00000
00001FC03FE00000
00003FC03FF00000
00003FC01FF00000
00003FE01FF00000
00003FE01FF80000
00007FF00FF80000
00007FE00FF80000
00007FE00FF80000
00007FE00FFC0000
0000FFE007FC0000
0000FFC007FC0000
0000FFC007FE0000
0001FFC007FE0000
0001FF8003FE0000
0001FF8003FE0000
0003FF8003FF0000
0003FF0003FF0000
0003FF0001FF0000
0007FF0001FF8000
0007FE0001FF8000
000FFE0001FF8000
000FFE0001FFC000
000FFE0000FFC000
001FFC0000FFC000
001FFC0000FFE000
001FF800007FE000
001FF800007FE000
003FF000003FE000
003FF000003FF000
003FF000003FF000
007FE000001FF000
007FE000001FF800
007FE000001FF800
00FFE000003FF800
00FFF0C0003FFC00
00FFF3E01C7FFC00
01FFFFF03FFFFC00
01FFFFF03FFFFE00
01FFFFF03FFFFE00
01FFFFF03FFFFE00
03FFFFE01FFFFF00
03FFFFE01DFFFF00
03FF80000007FF00
07FF00000003FF80
07FE00000001FF80
07FE00000001FF80
0FFC00000001FFC0
0FFC00000000FFC0
0FFC00000000FFC0
1FF800000000FFE0
1FF800000000FFE0
1FF8000000007FE0
3FF8000000007FE0
3FF0000000007FF0
3FF0000000003FF0
3FF0000000003FF8
7FE0000000001FF8
7FE0000000001FF8
7FE0000000001FFC
FFC0000000000FFC
FFC0000000000FFC
FF800000000007FC
FF800000000007FC
7F000000000007F8
3E000000000001F0
ENDCHAR
STARTCHAR 0042
ENCODING 66
SWIDTH 656 0
DWIDTH 63 0
BBX 54 93 5 -17
BITMAP
1F003F00000000
3F807FFC000000
3F807FFFC00000
7F807FFFF80000
7F803FFFFE0000
7F800001FF8000
FF800FFFE7C000
FF8007FFF1F000
FF8007FFFC7800
FF80000FFE1C00
FF800000FF8C00
FF8000003FCE00
FF8000000FE700
FF80000007F700
FF80000001FF80
FF80000000FF80
FF800000007FC0
FF800000007FC0
FF800000003FC0
FF800000001FE0
FF800000001FE0
FF800000000FE0
FF800000000FE0
FF800000000FF0
FF800000000FF0
FF8000000007F0
FF8000000007F0
FF8000000007F0
FF8000000007F0
FF8000000007F0
FF8000000007F0
FF8000000007F0
FF8000000007F0
FF8000000007F0
FF800000000FE0
FF800000001FE0
FF800000003FE0
FF80000000FFE0
FF80000001FFC0
FF80000001FFC0
FF80000007FF80
FF8000001FFF80
FF8001FFFFFF00
FF8007FFFFFE00
FF800FFFFFFC00
FF801FFFFFF800
FF803FFFFFF800
FF807FFFFFF800
FF807FFFFFFC00
FF807FFFFFFC00
FF807FFFFFFE00
FF803FFFFFFF00
FF8000007FFF80
FF8000000FFF80
FF80000001FFC0
FF800000007FC0
FF800000001FE0
FF8000000007F0
FF8000000007F0
FF8000000007F8
FF8000000007F8
FF8000000007F8
FF8000000007FC
FF8000000007FC
FF8000000007FC
FF8000000007FC
FF8000000007FC
FF8000000007FC
FF8000000007FC
FF8000000007FC
FF8000000007FC
FF8000000007FC
FF8000000007FC
FF8000000007F8
FF8000000007F8
FF8000000007F8
FF800000000FF8
FF800000001FF0
7F800000003FF0
7F800000007FE0
7F80000000FFE0
7F80000001FFC0
7F80000007FFC0
7F8000001FFF80
7F800000FFFF00
7F8003FFFFFE00
7F8007FFFFFC00
7F801FFFFFF800
7F803FFFFFF000
7F803FFFFFC000
7F807FFFFF8000
7F80FFFFFE0000
3F80FFFFF00000
ENDCHAR
STARTCHAR 0043
ENCODING 67
SWIDTH 666 0
DWIDTH 64 0
BBX 61 93 0 -17
BITMAP
0000003FF0000000
000001FFFC000000
00000FFFFE000000
00001FC03E000000
00007E0000000000
0000F00000000000
0003F1E0000E0000
0007E7FC00078000
000FFF8000C3C000
001FFC00003FE000
003FF000000FF000
007FC0000001FC00
00FFC000001C7C00
01FF8000000F1E00
01FF000000078700
03FE00000003C380
07FC00000001E1C0
07F800000000F1C0
0FF800000000FFE0
0FF0000000007FE0
1FE0000000007FE0
1FC0000000003FE0
1FC0000000000FC0
3F80000000000000
3F80000000000000
3F80000000000000
3F00000000000000
7F00000000000000
7F00000000000000
7F00000000000000
7F00000000000000
7F00000000000000
7F00000000000000
FF00000000000000
FF00000000000000
FF00000000000000
FF00000000000000
FF00000000000000
FF00000000000000
FF00000000000000
FF00000000000000
FF00000000000000
FF00000000000000
FF00000000000000
FF00000000000000
FF00000000000000
FF00000000000000
FF00000000000000
FF00000000000000
FF00000000000000
FF00000000000000
FF00000000000000
FF00000000000000
FF00000000000000
FF00000000000000
FF00000000000000
FF00000000000000
FF00000000000000
FF00000000000000
FF00000000000000
FF00000000000000
FF00000000000000
FF00000000000000
FF00000000000000
FF00000000000000
7F80000000000000
7F80000000000000
7F80000000000000
7F80000000000000
7FC0000000000000
7FC0000000000010
3FE0000000000038
3FE0000000000078
3FF00000000000F0
1FF00000000021F0
1FF800000000F3E0
0FF800000001F7E0
0FFC00000007FFC0
07FC0000000FFF80
07FC0000003FFF80
03FC000000FFFF00
03FC000007FFFE00
01FE78003FFFFC00
00FEFF07FFFFF800
007FFFFFFFFFF000
003FFFFFFFFFE000
001FFFFFFFFFC000
000FFFFFFFFF0000
0007FFFFFFFC0000
0001FFFFFFF00000
00007FFFFFC00000
00000FFFFE000000
0000007F80000000
ENDCHAR
STARTCHAR 0044
ENCODING 68
SWIDTH 604 0
DWIDTH 58 0
BBX 53 94 3 -20
BITMAP
781FDFFFF80000
F83FFFFFFE0000
F83FFFFFFF0000
F81FFFFFFF8000
F81FFFFFFFC000
F83FFFFFFFE000
781FFFFFFFF000
7803FFFFFFFC00
7800000007FE00
7800000003FF80
7800000001FF80
7800000000FFC0
7800000000FFE0
78000000007FF0
78000000007FF0
78000000003FF8
78000000003FF8
78000000003FF8
78000000001FF8
78000000001FF8
78000000001FF8
78000000001FF8
78000000001FF8
78000000001FF8
78000000000FF8
78000000000FF8
78000000000FF8
78000000000FF8
78000000000FF8
78000000000FF8
78000000000FF8
78000000000FF8
78000000000FF8
78000000000FF8
78000000000FF8
780000000007F8
780000000003F8
780000000001F8
780000000001F8
780000000000F8
780000000000F8
78000000000078
78000000000078
78000000000078
78000000000078
78000000000078
78000000000078
78000000000078
78000000000078
780000000000F8
780000000000F8
780000000000F8
780000000001F8
780000000001F8
780000000011F8
780000000013F8
780000000013F8
78000000000FF8
78000000000FF8
78000000000FF8
78000000000FF8
78000000000FF0
78000000000FF0
78000000000FF0
78000000000FF0
78000000000FF0
78000000000FF0
78000000001FF0
78000000001FE0
78000000001FE0
F8000000001FE0
F8000000003FE0
F8000000023FC0
F8000000067FC0
F800000006FFC0
F80000001FFFE0
F80200001FFFE0
F80300001FFF80
F807CC00FFFF00
F80FFFFFFFFE00
F83FFFFFFFFC00
F87FFFFFFFF800
F8FFFFFFFFF000
F9FFFFFFFFC000
F9FFFFFFFF0000
F9FFFFFFFC0000
F1FFFFFFF80000
F1FFFFFFF80000
61FFFFFFF80000
40FFFFFF380000
00CFFFE3380000
0001F801080000
00000000800000
00000000800000
ENDCHAR
STARTCHAR 0045
ENCODING 69
SWIDTH 687 0
DWIDTH 66 0
BBX 57 93 3 -17
BITMAP
03FFFFFFFFFFFC00
0FFFFFFFFFFFFF00
1FFFFFFFFFBFFF00
3FE000000005FF80
3FC000000805FF80
7F800000100FFF00
7FFFFFFFFE7FFF00
7FFFFFFFFFFFFC00
7FFFFFFFF1FFE000
7F00000000000000
1B00000000000000
1B00000000000000
1300000000000000
0300000000000000
0300000000000000
0300000000000000
0300000000000000
0000000000000000
0000000000000000
0000000000000000
0400000000000000
0200000000000000
0200000000000000
0200000000000000
0300000000000000
0300000000000000
0300000000000000
0700000000000000
0700000000000000
0300000000000000
0300000000000000
0300000000000000
0300000000000000
0300000000000000
0100000000000000
0100000000000000
0100000000000000
0100000000000000
01FFFFFFFFBE0000
03FFFFFFFFFF8000
03FFFFFFF3FFC000
03FC003801FFE000
330000003FFFE000
730007FFFFFFF000
73007FFFFFFFF000
73FFFFFFFFFFE000
FF00000000000000
7F00000000000000
3300000000000000
2300000000000000
0000000000000000
0200000000000000
0300000000000000
0300000000000000
0300000000000000
0300000000000000
0300000000000000
0300000000000000
0300000000000000
0300000000000000
0300000000000000
0300000000000000
2300000000000000
3300000000000000
3300000000000000
3B00000000000000
3300000000000000
3300000000000000
3300000000000000
7B00000000000000
FB00000000000000
FB00000000000000
FF00000000000000
FF00000000000000
FF00000000000000
FF00000000000000
FF00000000000000
FF00000000000000
FF00003FFFFFFC00
FFFFFFFFFFFFFE00
FFFFFFFFFFFFFF80
FFFFFFFFFFFFFF80
FFFFFFFFFFFFFF80
FFFFFFFFFFFFFF80
FFFFFFFFFFFFFF80
7FFFFFFFFFFFFF80
3FFFFFFFFFFFFF80
3FFFFFFFFFFFFE00
3FC0000000000000
1FC0000000000000
1FC0000000000000
1F80000000000000
0F80000000000000
ENDCHAR
STARTCHAR 0046
ENCODING 70
SWIDTH 677 0
DWIDTH 65 0
BBX 62 93 2 -17
BITMAP
FFFFFFFFFFFFFFC0
FFFFFFFFFFFFFFE0
FFFFFFFFFFFFFFF0
FFFFFFFFFFFFFFF0
FFFFFFFFFFFFFFF8
FFFFFFFC00007FFC
FFFFFFF800001FF8
FFFFFFF800001FF8
FFFFFFF000001FF0
FFFC000000000000
FFFE000000000000
FFFF000000000000
FFFF800000000000
FFFF800000000000
FFFFC00000000000
FF8FC00000000000
FF01800000000000
FF00000000000000
FF00000000000000
FF00000000000000
FF80000000000000
FF80000000000000
FFC0000000000000
FFC0000000000000
FFC0000000000000
FFC0000000000000
FF80000000000000
FE00000000000000
FF00000000000000
FF80000000000000
FF80000000000000
FF80000000000000
FF80000000000000
FF80000000000000
FF80000000000000
FF80000000000000
FF80000000000000
FF80000000000000
FF80000000000000
FFC0000000000000
FFC0000000000000
FFC07FFFFFFFF000
FFC3FFFFFFFFF800
FFDF7FFFFFFFF800
FFC3FFFFFFFFFC00
FFFFFFC000FFFC00
FFFFFC00001FFC00
FFFFC0000007FC00
FFFFFFFFFFFFFC00
FFFFFFFFFFFFF800
FFE3FFFFFFFFF000
FFC0000000000000
FFC0000000000000
FFC0000000000000
FFC0000000000000
FFC0000000000000
FFC0000000000000
FFC0000000000000
FFC0000000000000
FFC0000000000000
FFC0000000000000
FFC0000000000000
FFC0000000000000
FFC0000000000000
FFC0000000000000
FFC0000000000000
FFC0000000000000
FFC0000000000000
FFC0000000000000
FFC0000000000000
7FC0000000000000
7FC0000000000000
7FC0000000000000
7FC0000000000000
7FC0000000000000
7FC0000000000000
7FC0000000000000
7FC0000000000000
7FC0000000000000
7FC0000000000000
7FC0000000000000
7FC0000000000000
7FC0000000000000
7FC0000000000000
7FC0000000000000
FFC0000000000000
FFC0000000000000
FFC0000000000000
FFC0000000000000
7FC0000000000000
7F80000000000000
7F00000000000000
1E00000000000000
ENDCHAR
STARTCHAR 0047
ENCODING 71
SWIDTH 697 0
DWIDTH 67 0
BBX 62 89 0 -15
BITMAP
0000003FF0000000
000007FFFE000000
00001FFFFFF80000
00003FFFFFFE0000
0000FFFFFFFFC000
0003FFFFFFFFE000
0007FFFFFFFFF800
001FFFFFFFFFFC00
007FFFFF80201600
01FFFFFC00000B00
03FFFFF000000D80
07FFFFC0000006C0
0FFFFF00000007E0
1FFFFE00000003F0
1FFFF800000003F8
3FFFF000000001F8
7FFFE000000003F8
7FFFC000000001F8
FFFF0000000000F0
FFFE000000000070
FFFE000000000020
FFFC000000000000
FFF8000000000000
FFF8000000000000
FFF8000000000000
FFF0000000000000
FFF0000000000000
FFF0000000000000
FFE0000000000000
FFE0000000000000
FFE0000000000000
FFE0000000000000
FFE0000000000000
FFC0000000000000
FFC0000000000000
FFC0000000000000
FFC0000000000000
FFC0000000000000
FFC0000000000000
FFC0000000000000
FFC0000000000000
FFC0000000000000
FFC0000000000000
FFC0000000000000
FFC0000000000000
FFC0000000000000
FFC000001FFFFFE0
FFC000001FFFFFF8
FFC000000FFFFFFC
FFC0000007FF001C
FFC0000001FE001C
FFC0000000FC001C
FFC0000000FC001C
FFC000000078001C
FFC00000003FFE3C
FFC00000003FFF3C
FFC00000003FFFFC
FFC00000000001FC
FFC000000000001C
FFC000000000001C
FFC000000000001C
FFE000000000001C
FFE000000000001C
FFE000000000001C
FFE0000000000018
FFE0000000000018
FFF0000000000018
FFF0000000000018
FFF0000000000018
7FF8000000000038
7FF8000000000070
7FF80000000009F0
3FFC0000000013F0
1FFC000000003FA0
0FFE000000006060
0FFF00000001C060
07FF0000000380C0
07FF8000000F00C0
03FFC000003E0180
01FFE00001F80300
00FFE0003FF00F00
007FFFFFFF8FFE00
003FFFFFFFFFFC00
001FFFFFFFFFF000
0007FFFFFFFFE000
0001FFFFFFFF0000
00007FFFFFFC0000
00000FFFFFE00000
000001FFFE000000
ENDCHAR
STARTCHAR 0048
ENCODING 72
SWIDTH 552 0
DWIDTH 53 0
BBX 48 93 3 -17
BITMAP
300000000010
3C000000001E
3C000000001F
3C000000001F
3C000000001F
3C000000001F
3C000000001F
3C000000001F
3C000000001F
3C000000001F
3C000000001F
3C000000001F
3C000000001F
3C000000001F
3C000000001F
3C000000001F
3C000000001F
3C000000001F
3C000000001F
3C000000001F
3C000000001F
3C000000001F
3C000000001F
3C000000001F
3C000000001F
3C000000001F
3C000000001F
1C000000001F
1C000000001F
1C000000001F
1C000000001F
1C000000001F
1C000000001F
1C000000001F
1C000000001F
1C000000001F
1C000000001F
1C000000001F
1C000000001F
1C000000001F
1C000000001F
1C000000001F
1C000000003F
1C000000007F
1C003F0003FF
1F3FFFFFFFFF
1FFFFFFFFFFF
1FFFFFFFFFFF
1FFF8000001F
1F1F0000001F
1E000000001F
1E000000001F
3E000000001F
3E000000001F
3E000000001F
3E000000001F
1E000000001F
1E000000001F
1E000000001F
1E000000001F
1E000000001F
1E000000001F
1E000000001F
1E000000001F
1C000000001F
1C000000000F
1C000000000F
1C000000000F
3C000000000F
3C000000000F
3C000000000F
7C000000000F
7C000000000F
7C000000000F
7C000000000F
7C000000000F
7C000000000F
7C000000000F
7C000000000F
7C000000000F
7C000000000F
7C000000000F
7C000000001F
7C000000001F
7C000000001F
7C000000001F
7C000000001F
7C000000001F
7C000000001F
FC000000001F
FC000000001F
FC000000001F
7C000000001F
ENDCHAR
STARTCHAR 0049
ENCODING 73
SWIDTH 114 0
DWIDTH 11 0
BBX 8 93 3 -17
BITMAP
1E
FF
FF
FF
FF
FF
FF
7F
7F
7F
7F
7F
7F
7F
7F
7F
7F
7F
7F
7F
7F
FF
FF
FF
FF
FF
FF
FF
FF
FF
FF
FF
FF
FF
FF
FF
FF
FF
FF
FF
FF
FF
FF
FF
FF
FF
FF
FF
FF
FF
FF
FF
FF
FF
FF
FF
FF
FF
FF
FF
FF
FF
FF
FF
FF
FF
FF
FF
FF
7F
7F
3F
3F
3F
1F
1F
1F
1F
1F
1F
1F
DF
DF
DF
DF
DF
DF
DF
FF
FF
FF
DF
CE
ENDCHAR
STARTCHAR 004A
ENCODING 74
SWIDTH 447 0
DWIDTH 43 0
BBX 40 92 2 -17
BITMAP
0000000038
00000000FE
00000001FF
00000003FF
00000003FF
00000007FF
00000007FF
00000007FF
00000007FF
00000007FF
00000007FF
00000007FF
00000007FF
00000007FF
00000007FF
00000007FF
00000007FF
00000007FF
00000007FF
00000007FF
00000007FF
00000007FF
00000007FF
00000007FF
00000007FF
00000007FF
00000007FF
00000007FF
00000007FF
00000007FF
00000007FF
00000007FF
00000007FF
00000007FF
00000007FF
00000007FF
00000007FF
00000007FF
00000007FF
00000007FF
00000007FF
00000007FF
00000007FF
00000007FF
00000007FF
00000007FF
00000007FF
00000007FF
00000007FF
00000007FF
00000007FF
00000007FF
00000007FF
00000007FF
00000007FF
00000007FF
00000007FF
000000077F
000000077F
000000077F
000000073F
00000004BF
00000000BF
00000000FF
00000000FF
00000000DF
00000000DF
00000000DF
00000000FF
000000007F
000000007F
000000007F
000000007F
000000007F
000000007F
000000007F
180000003E
7800000E26
F800000FE0
F000001FE0
7C00003FE0
7E00003FE0
7F80001FF0
3FE0001FE0
1F40001FC0
0F86001FC0
07C7000F80
03F3E03F00
01FEFFFE00
007FFFF800
001FFFE000
0001F80000
ENDCHAR
STARTCHAR 004B
ENCODING 75
SWIDTH 739 0
DWIDTH 71 0
BBX 61 93 0 -17
BITMAP
1800000000000180
1E000000000003E0
3E000000000007F0
3F00000000000FF0
7F00000000001FE0
7F00000000003FC0
7F00000000007F80
FF0000000000FF00
FD0000000001FE00
FD0000000003FC00
FB0000000007F800
FB000000000FF000
FB000000001FF000
F3000000003FE000
F3000000007FC000
F300000000FF8000
F300000001FF0000
E300000003FE0000
E300000007FC0000
E30000000FF80000
E30000001FF00000
E30000003FE00000
E30000007FC00000
E3000000FF800000
E3000001FC000000
E3000003F8000000
E3000007F0000000
E300000FE0000000
E300001F80000000
E300043F00000000
E100077E00000000
E1000FFC00000000
E1000FF800000000
F1000FF000000000
F1000FE000000000
F1000FE000000000
F0800FD000000000
FFF03FF000000000
FFF8FFF000000000
FFF9FFF000000000
FFF9FFF800000000
FFF0FFF800000000
FFF1FFF800000000
FFE3FFFC00000000
FFE7E0FE00000000
FFEFC0FE00000000
FFFF807F00000000
FFFF007F80000000
FFFE003FC0000000
FFFC003FE0000000
FFF8001FE0000000
FFF0001FF0000000
FFC0000FF8000000
FFC0000FF8000000
FF800007FC000000
FF800007FE000000
FF800007FE000000
FF800003FF000000
FF000001FF800000
FF000001FF800000
FF000000FFC00000
FF0000007FE00000
FF0000007FE00000
FF0000003FF00000
FF0000001FF80000
FF0000001FF80000
FF0000000FFC0000
FF00000007FE0000
FF00000007FE0000
FF00000003FF0000
FF00000001FF8000
FF00000001FF8000
FF00000000FFC000
FF00000000FFE000
FF000000007FE000
7F000000003FF000
7F000000003FF800
7F000000001FFC00
FF000000000FFC00
FF000000000FFE00
FF0000000007FF00
FF0000000003FF00
FF0000000003FF80
FF0000000001FFC0
FF0000000000FFE0
FF00000000007FE0
FF00000000007FF0
FE00000000003FF8
FE00000000001FF8
FE00000000000FF0
FC00000000000FF0
78000000000003E0
7000000000000080
ENDCHAR
STARTCHAR 004C
ENCODING 76
SWIDTH 593 0
DWIDTH 57 0
BBX 49 92 3 -17
BITMAP
7C000000000000
7C000000000000
7C000000000000
7C000000000000
74000000000000
60000000000000
60000000000000
7C000000000000
7C000000000000
7C000000000000
7C000000000000
7C000000000000
7C000000000000
7C000000000000
7C000000000000
7C000000000000
7C000000000000
7C000000000000
1C000000000000
5C000000000000
5C000000000000
7C000000000000
7C000000000000
7C000000000000
7C000000000000
7C000000000000
7C000000000000
7C000000000000
7C000000000000
7C000000000000
78000000000000
78000000000000
78000000000000
78000000000000
68000000000000
68000000000000
68000000000000
68000000000000
68000000000000
68000000000000
6C000000000000
7C000000000000
70000000000000
68000000000000
68000000000000
68000000000000
68000000000000
68000000000000
68000000000000
68000000000000
78000000000000
78000000000000
78000000000000
70000000000000
70000000000000
70000000000000
7C000000000000
20000000000000
68000000000000
78000000000000
78000000000000
78000000000000
78000000000000
70000000000000
70000000000000
70000000000000
78000000000000
78000000000000
78000000000000
78000000000000
78000000000000
78000000000000
78000000000000
78000000000000
78000000000000
78000000000000
7C000000000000
7C000000000000
7C000000000000
7C000000000000
7C000000000000
7C000000000000
7C000000000000
7C000000000000
7FFFFFFFFFF000
7FFFFFFFFFFC00
FFFFFFFFFFFE00
EFFFFFFFFFFF00
EFFFFFFFFFFF80
EFFFFFFFFFFF80
EFFFFFFFFFFF00
47FFFFFFFFFE00
ENDCHAR
STARTCHAR 004D
ENCODING 77
SWIDTH 781 0
DWIDTH 75 0
BBX 73 93 0 -17
BITMAP
03800000000000000E00
0FC00000000000003F00
1FC00000000000007F00
7FC0000000000000FF80
7FC0000000000001FF80
FFC0000000000003FF80
FFC0000000000007FF80
FFE000000000000FFF80
FFE000000000001FFF80
FFF800000000001FFF80
FFF800000000003FFF80
FFFC00000000007FFF80
FFFC00000000007FFF80
FFFC0000000000FFFF80
FFFE0000000000FFFF80
FFFE0000000001FFFF80
FFFF0000000001FFFF80
FFFF8000000003FFFF80
FFFF8000000003FFFF80
FFFFC000000007FFFF80
FFFFC00000000FFDFF80
FFFFE00000000FF9FF80
FFFFE00000001FF9FF80
FFFFF00000001FF1FF80
FFFFF00000007FE1FF80
FFFFF8000000FFE1FF80
FFFFFC0000007FC1FF80
FFFFFC000000FF81FF80
FFFFFE000000FF81FF80
FFFFFE000001FF01FF80
FFFFFF000003FE01FF80
FFEFFF800003FE01FF80
FFE7FF800007FC01FF80
FFC3FFC00007FC01FF80
FFC1FFC0000FF801FF80
FFC0FF60000FF801FF80
FFC07F60003FF001FF80
FFC07F3800FFF001FF80
FFF83F1800FFE001FF80
FFF03F1C01FFE001FF80
FFE01F8C01FFC001FF80
FFE00F8E01FFC001FF80
FFC00F8703FF8001FF80
FFC007C707FF8001FF80
FFC007C707FF0001FF80
FFC003E707FF0001FF80
FFC001FF07FF0001FF80
FFC001FF07FE0001FF80
FFC000FF07FE0001FF80
FFC0007FC7F80001FF80
FFC0003FFFF80001FF80
FFC0003FFFF00001FF80
FFC0001FFFE00001FF80
FFC0000FFFE00001FF80
FFC0000FFFC00001FF80
FFC00007FFC00001FF80
FFC00003FF800001FF80
FFC00003FF000001FF80
FFC00001FE000001FF80
FFC0000078000001FF80
FFC0000000000001FF80
FFC0000000000001FF80
FFC0000000000001FF80
FFC0000000000001FF80
FFC0000000000001FF80
FFC0000000000001FF80
FFC0000000000001FF80
FFC0000000000001FF80
FFC0000000000001FF80
FFC0000000000001FF80
FFC0000000000001FF80
FFC0000000000001FF80
FFC0000000000001FF80
FFC0000000000001FF80
FFC0000000000001FF80
FFC0000000000001FF80
FFC0000000000001FF80
FFC0000000000001FF80
FFC0000000000001FF80
FFC0000000000001FF80
FFC0000000000001FF80
FFC0000000000001FF80
FFC0000000000001FF80
FFC0000000000001FF80
FFC0000000000001FF80
FFC0000000000001FF80
FFC0000000000001FF80
FFC0000000000001FF80
FFC0000000000001FF80
FF80000000000001FF80
7F00000000000001FF00
7E00000000000001FE00
0000000000000000F000
ENDCHAR
STARTCHAR 004E
ENCODING 78
SWIDTH 666 0
DWIDTH 64 0
BBX 65 93 -1 -17
BITMAP
038000000000000400
07C000000000000E00
07E000000000000E00
0FF000000000001E00
0FF000000000001E00
1FF800000000001E00
1FF800000000001F00
3FFC00000000003F00
3FFE00000000023F00
3FFE0000000003BF00
7FFF0000000003BF00
7FFF8000000003FF00
7FFF8000000003FF00
7FFFC000000003FF00
7FFFE000000003FF00
FFFFE000000003FF00
FFFFF000000003FF00
FFFFF000000003FF00
FFFFF800000003FF00
FFFFFC00000003FF00
FFFFFC00000003FF00
FFFFFE00000003FF00
FFFFFF00000003FF00
FFFFFF00000003FF00
FFFBFF80000003FF00
FFF3FFC0000003FF00
FFF1FFC0000003FF80
FFF1FFE0000003FF80
FFF0FFF0000003FF80
FFE07FF0000003FF00
7FE07BF8000003FF00
7FE03FFC000003FF00
7FE03DFC000003FF00
7FE01EFE000003FF00
7FE00FFF000003FF00
7FE0077F000003FF00
7FE0033F800003FF00
7FE001BF800003FF00
7FE0009FC00003FF00
7FE0000FE00003FF00
7FE0000FE00003FF00
7FE00007F00003FF00
7FE00003F80003FF00
7FE00003F80003FF00
7FE00001FC0003FF00
7FE00000FE0003FF00
7FE00000FE0003FF00
7FE000007F0003FF00
7FE000003F8003FF00
7FE000003F8003FF00
7FE000001FC003FF00
7FE000000FE003FF00
7FE000000FE003FF00
7FE0000007F003FF00
7FE0000003F003FF00
7FE0000001F803FE00
7FE0000000FC03FE00
7FE00000007C03FE00
7FE00000007E03FE00
7FE00000003F03FE00
7FE00000001F03FE00
7FE00000001F83FE00
7FE00000000F83FE00
7FE000000007C3FE00
7FE000000007E3FE00
7FE000000003E3FE00
7FE000000001F3FE00
7FE000000001FBFE00
7FE000000000FBFE00
7FE000000018FFFE00
7FE00000000C7FFE00
7FE00000000E7FFF00
7FE0000000073FFF00
7FE0000000031FFF00
7FE0000000039FFF00
7FE000000001CFFF00
7FE000000000EFFF00
7FE00000000067FF00
7FE00000000077FF00
7FE0000000003BFF00
7FE0000000001FFF00
7FE0000000000FFF00
7FE0000000000FFF00
7FE00000000007FF00
7FE00000000007FF00
7FE00000000007FF00
7FE00000000007FF00
7FE00000000007FF00
7FE00000000003FF00
7FE00000000003FF00
7FC00000000001FF00
3F800000000000FE00
1E0000000000007A00
ENDCHAR
STARTCHAR 004F
ENCODING 79
SWIDTH 625 0
DWIDTH 60 0
BBX 60 93 -1 -17
BITMAP
0000007007C00000
000003F00FF00000
00001FF00FFC0000
00007FE00FFE0000
0000FFE00FFF8000
0003FFC00FFFC000
0007FFC00FF8E000
001FFFC007F87000
003FFF8003FC3800
007FFE0000FE1800
00FFF800003F1C00
01FFE000001F8E00
03FFC0000007C600
03FF80000003E700
07FF00000001E700
0FFE00000000F380
0FFC000000007380
1FF80000000031C0
1FF00000000019C0
1FF00000000009C0
3FE00000000001E0
3FC00000000002E0
3FC00000000001E0
3F800000000005E0
3F800000000005E0
7F800000000005F0
7F000000000006F0
7F000000000006F0
7F000000000002F0
7F000000000002F0
7F000000000003F0
7F000000000001F0
7F000000000001F0
7F000000000001F0
7F000000000001F0
7F000000000000F0
FF000000000000F0
FF000000000004F0
FF000000000006F0
FF000000000006F0
FF000000000006F0
FD000000000006F0
FB000000000006F0
F3000000000006F0
F3000000000006F0
F3000000000006F0
E7000000000006F0
EF000000000006F0
F3000000000007F0
E3000000000007F0
E3000000000007F0
C3000000000007F0
DF000000000007F0
DF000000000007F0
DF000000000007F0
CF000000000007F0
CF000000000007F0
CF000000000007F0
CF000000000007F0
C7000000000007F0
C7000000000007F0
C7000000000007F0
C7000000000007F0
C7000000000007F0
E7800000000007F0
F3800000000007F0
FB800000000007F0
FB800000000007F0
FB800000000007E0
FBC00000000007E0
FBC00000000007E0
FBC00000000007E0
F9600000000007E0
F860000000000FC0
7830000000000FC0
7B38000000001FC0
3F18000000003F80
3F0C000000007F80
1F0E000000007F00
1F87000000011F00
0F87C00000033E00
07C7F00000073E00
03E3FC00000E3C00
01F3FF00003C7800
01FBFFC000787000
007FFFC000F0E000
003FFFC001E1C000
001FFFC007E30000
000FFFC03FDE0000
0003FFC03FF80000
0000FF803FE00000
00003F803F000000
000007001C000000
ENDCHAR
STARTCHAR 0050
ENCODING 80
SWIDTH 625 0
DWIDTH 60 0
BBX 57 93 0 -17
BITMAP
1F80F01FC0000000
3F80FC1FFC000000
3F80FE3FFF000000
3F80FFFFFFC00000
3F80FFFFFFF00000
7F80FFFFFFFC0000
7F80FFFFFFFE0000
7F80F0FFFFFF0000
7F80607FFFFF8000
7F800000007FC000
7F800000001FE000
7F8000000007F000
FF8000000001F000
FF8000000000F800
FF80000000007C00
FF80000000003C00
FF80000000003E00
FF80000000001E00
FF80000000000F00
FF80000000003F00
FF8000000001FF00
FF8000000003FF00
FF8000000001FF80
FF8000000001FF80
FF8000000001FF80
FF8000000001FF80
FF8000000001FF80
FF8000000000FF80
FF8000000000FF80
FF8000000000FF80
FF8000000000FF80
FF8000000000FF80
FF8000000000FF80
FF8000000000FF00
FF8000000000FF00
FF80000000007F00
FF80000000003E00
FF80000000003E00
FF80000000003C00
FF8000000781FC00
FF80007FFFFFF800
FF8007FFFFFFF000
FF803FFFFFFFE000
FF807FFFFFFFC000
FF80FFFFFFFF8000
FF81FFFFFFFF0000
FF81FFFFFFFC0000
FF81FFFFFFF80000
FF83FFFFFFC00000
7F81FFFFFE000000
3F81FFFFC0000000
3F80000000000000
3F80000000000000
3F80000000000000
3F80000000000000
3F80000000000000
3F80000000000000
3F80000000000000
1F80000000000000
1F80000000000000
1F80000000000000
1F80000000000000
FF80000000000000
FF80000000000000
FF80000000000000
FF80000000000000
FF80000000000000
FF80000000000000
FF80000000000000
FF80000000000000
FF80000000000000
FF80000000000000
FF80000000000000
FF80000000000000
FF80000000000000
FF80000000000000
FF80000000000000
FF80000000000000
FF80000000000000
FF80000000000000
FF80000000000000
FF80000000000000
FF80000000000000
FF80000000000000
FF80000000000000
7F80000000000000
7F80000000000000
7F80000000000000
7F80000000000000
7F80000000000000
FF80000000000000
FF80000000000000
3E00000000000000
ENDCHAR
STARTCHAR 0051
ENCODING 81
SWIDTH 656 0
DWIDTH 63 0
BBX 61 93 0 -17
BITMAP
000005E000000000
00000FE007000000
00003FF00FE00000
0000FFF00FF80000
0001FFF007FE0000
0007FFF003FF0000
001FFFF0007F8000
003FFFF0001FC000
007FFFF0000FE000
007FFFF00007F000
00FFFFF00003F800
01FFF9C00001FC00
01FFF0000001FC00
03FFE0000001FE00
02FFC0000001FF00
04FF00000001FF00
04FE00000000FF80
09FC00000000FF80
09FC000000007FC0
11F8000000007FC0
11F0000000003FC0
23E0000000003FE0
23E0000000003FE0
23E0000000003FE0
47C0000000001FF0
47C0000000001FF0
47C0000000001FF0
4FC0000000001FF0
4FC0000000001FF0
8FC0000000001FF0
9FC0000000001FF8
9FC0000000000FF8
9FC0000000000FF8
9FC0000000000FF8
BFC0000000000FF8
BFC0000000000DF8
BFC0000000000DF8
BFC0000000000DF8
BFC0000000000CF8
FFC0000000000CF8
FFC0000000000CF8
FFC0000000000CF8
7FC0000000000CF0
7FC0000000000CF0
7FC0000000000CF0
7FC0000000000CF0
7FC0000000000CF0
3FC0000000000CF0
3FC0000000000CF0
3FC0000000000DF0
1FC0000000000DF0
1FC0000000000FF0
1F80000000000FF0
1F80000000000FF0
1F80000000000FF0
1F80000000000FF0
1F00000000000FF0
1F00000000000FF0
3F00000000000FF0
3F00000000000FF0
3F00000000000FF0
3F80000000000FF0
7F80000000000FF0
7F80000000000FF0
7F80000000000FF0
FF80000000000FE0
FFC0000000000FE0
FFC0000000001FE0
FFC0000000001FE0
FFE0000000001FE0
FFE0000000003FC0
FFE0000000003FC0
7FF0000000007FC0
7FF000000039FF80
7FF8000000FFFF80
3FFC000000FFFF80
3FFC0000007FFF00
1FFF0000007FFF00
0FFF8000003FFE00
0FFFC000003FFE00
07FFF000003FFE00
03FFFC00007FFE00
01FFFF00007FFF00
00FFFF8000FFFF80
007FFFC000BFFF80
003FFFC001FFFFC0
001FFFE007FFFFE0
0007FFE00FFFFFE0
0001FFE01FFF1FF0
0000FFE03FFC1FF0
00001FE03FF80FF0
000007E01FE00FE0
000000601E0007C0
ENDCHAR
STARTCHAR 0052
ENCODING 82
SWIDTH 635 0
DWIDTH 61 0
BBX 57 94 0 -15
BITMAP
0200000000000000
02007FFF00000000
0601FFFFF8000000
0601FFFFFF000000
0600FFFFFF800000
06003FFFFFE00000
0600000000100000
06000000000C0000
0E00000000020000
0E00000000010000
1E00000000008000
1E00000000004000
3E00000000006000
3E00000000002000
3E00000000001000
3E00000000001800
1E00000000000800
0600000000000C00
0600000000000C00
0600000000000600
0600000000001600
0600000000001E00
0600000000001F00
0600000000000F00
0600000000000F00
0600000000000700
0600000000000780
0600000000000780
0600000000000380
0600000000000F80
0600000000000F80
0600000000000B80
0600000000000380
0600000000000380
0600000000000780
0600000000000780
0600000000000F00
0600000000000F00
0600000000000E00
0600000000001E00
0600000000001C00
0600000000003800
C600FFFFFC00F800
C603FFFFFC01F000
C607FFFFFC03E000
C603FFFFFC078000
C600000FFF1F0000
C60000007FFC0000
C600FFFFFFF80000
C603FFFFFFE00000
C607FFFFFF000000
C607FFFFFE000000
C203FFFFFE000000
C2000007FE000000
C6000007FF000000
C6000007FF000000
C6000003FF800000
C6000001FF800000
C60000007FC00000
C60000003F800000
C60000003F800000
C60000001F800000
E60000001FC00000
E60000001FF00000
E60000000FF00000
E60000000FF80000
E60000000FF80000
E60000000FFC0000
E600000007FC0000
E600000007FE0000
E600000003FE0000
E600000001FF0000
E600000000FF0000
F600000000FF8000
F6000000007F8000
F6000000003FC000
F6000000003FC000
F6000000001FE000
F6000000001FF000
FE000000000FF000
FE000000000FF000
FE0000000007F800
FE0000000007F800
FE0000000003FC00
FE0000000001FC00
FE0000000001FE00
FE0000000000FE00
FE0000000000FF00
FE00000000007F00
FE00000000007F00
FE00000000003F00
FE00000000003F00
FC00000000001C00
7000000000000800
ENDCHAR
STARTCHAR 0053
ENCODING 83
SWIDTH 833 0
DWIDTH 80 0
BBX 61 93 9 -17
BITMAP
00001FFE0F800000
0000FFFE1FF00000
0007FFFE3FFE0000
001FFE00FFFFC000
003FE003FFFFF000
007FFFBFFFFFFC00
00FFFFFFFFFFFE00
01FFFFFFFFFFFF80
03FFFFFFFFFFFFC0
07FFFE0000FFFFE0
0FFFE000000FFFE0
0FFF80000003FFF0
1FFF00000001FFF0
1FFC00000000FFF8
1FFC000000003FF8
3FF8000000001FF8
37F8000000000FE0
33F8000000000000
3FF0000000000000
7C70000000000000
7820000000000000
7000000000000000
7800000000000000
3800000000000000
3C00000000000000
3E00000000000000
1F80000000000000
1FE0000000000000
0FF0000000000000
0FFC000000000000
07FE000000000000
07FE000000000000
03FF000000000000
01FF800000000000
01FFE00000000000
00FFF80000000000
007FFE0000000000
003FFF0000000000
001FFFC000000000
000FFFF000000000
0007FFFC00000000
0003FFFF00000000
0000FFFFC0000000
00003FFFF8000000
00000FFFFC000000
000007FFFE000000
000001FFFF800000
0000007FFFE40000
0000001FFFF20000
00000003FEF90000
00000000FF3E8000
000000003F8FE000
000000000FE3F000
0000000001F8F800
00000000007FFC00
00000000001FBF00
000000000007BF80
000000000003FFC0
000000000000FFC0
0000000000003FE0
0000000000001FF0
0000000000000FF0
00000000000007F8
00000000000001F8
00000000000000F8
0000000000000078
0000000000000078
0000000000000078
0000000000000038
0000000000000038
0000000000000078
0000000000000070
0000000000000070
00000000000000F0
E0000000000000E0
F8000000000000E0
FE000000000001C0
7F800000000001C0
7FE0000000000380
3FF8000000000380
1FFE000000000700
0FFF000000000E00
0FFFC00000003E00
03FFF00000007C00
01FFFF000000F800
00FFFFF80001F000
007FFFFFE007C000
001FFFFFFFFF8000
0007FFFFFFFF0000
0001FFFFFFFC0000
00003FFFFFE00000
000007FFFF800000
0000000FFE000000
ENDCHAR
STARTCHAR 0054
ENCODING 84
SWIDTH 677 0
DWIDTH 65 0
BBX 61 93 0 -17
BITMAP
1FFFFFFFFFFFFF80
3FFFFFFFFFFFFFE0
7FFFFFFFFFFFFFF0
FFFFFFFFC0707FF8
7FFFFFFFC0400060
1FFFFFFFE0000000
003C007FE0000000
0000007FF0000000
0000007FF0000000
0000007FF0000000
0000007FE0000000
0000007FC0000000
0000007FC0000000
0000007FC0000000
0000007FC0000000
0000007FC0000000
0000007FC0000000
0000007FC0000000
0000007FC0000000
0000007FC0000000
0000007FC0000000
0000007FC0000000
0000007FC0000000
0000007FC0000000
0000007FC0000000
0000007FC0000000
0000007FC0000000
0000007FC0000000
0000007FC0000000
0000007FC0000000
0000007FC0000000
0000007FC0000000
0000007FC0000000
0000007FC0000000
0000003FC0000000
0000003FC0000000
0000003FC0000000
0000003FC0000000
0000003FC0000000
0000003FC0000000
0000003FC0000000
0000003FC0000000
0000003FC0000000
0000003FC0000000
0000003FC0000000
0000003FC0000000
0000003FC0000000
0000003FC0000000
0000003FC0000000
0000003FC0000000
0000003FC0000000
0000003FC0000000
0000003FC0000000
0000003FC0000000
0000003FC0000000
0000003FC0000000
0000003FC0000000
0000003FC0000000
0000003FC0000000
0000003FC0000000
0000003FC0000000
0000003FC0000000
0000003FC0000000
0000003FC0000000
0000003FC0000000
0000003FC0000000
0000003FC0000000
0000003FC0000000
0000003FC0000000
0000003FC0000000
0000003FC0000000
0000003FC0000000
0000003FC0000000
0000003FC0000000
0000003FC0000000
0000003FE0000000
0000007FE0000000
0000007FE0000000
0000007FE0000000
0000007FE0000000
0000007FE0000000
0000007FE0000000
0000007FE0000000
0000007FE0000000
0000007FE0000000
0000007FE0000000
0000007FE0000000
0000007FE0000000
0000007FE0000000
0000007FE0000000
0000007FE0000000
0000007FC0000000
0000001FC0000000
ENDCHAR
STARTCHAR 0055
ENCODING 85
SWIDTH 666 0
DWIDTH 64 0
BBX 60 93 2 -17
BITMAP
0000000000000380
0E00000000000FE0
0E00000000001FF0
1E00000000001FF0
1E00000000001FF0
1E00000000001FF0
1E00000000001FF0
1E00000000001FF0
0E00000000001FF0
0E00000000001FF0
0400000000001FF0
0200000000001FF0
0200000000001FF0
0200000000001FF0
0200000000001FF0
0200000000001FF0
0600000000001FF0
0600000000001FF0
0600000000001FF0
0600000000001FF0
2600000000001FF0
6600000000001FF0
7600000000001FF0
7600000000001FF0
7600000000001FF0
7600000000001FF0
7600000000001FF0
7600000000001FF0
7600000000001FF0
7600000000001FF0
7600000000001FF0
7600000000001FF0
7600000000001FF0
3600000000001FF0
3600000000001FF0
1600000000001FF0
1A00000000001FF0
1A00000000001FF0
0A00000000001FF0
0E00000000001FF0
0E00000000001FF0
0E00000000001FF0
0E00000000001FF0
0E00000000001FF0
0E00000000001FF0
0E00000000001FF0
0600000000001FF0
0600000000001FF0
0600000000001FF0
0600000000001FF0
0600000000001FF0
0600000000001FF0
0600000000001FF0
0600000000001FF0
0600000000001FF0
0600000000001FF0
0600000000001FF0
EE00000000001FF0
FE00000000001FF0
FE00000000001FF0
FE00000000001FF0
FE00000000001FF0
FE00000000001FF0
FE00000000001FF0
FE00000000001FF0
FE00000000001FF0
7E00000000001FF0
7E00000000001FF0
7E00000000003FF0
7E00000000003FF0
3E00000000003FF0
3E00000000003FF0
3E00000000007FE0
3F00000000007FE0
3F8000000000FFE0
1F8000000000FFC0
1FC000000003FFC0
1FE000000007FF80
1FF00000000FFF00
1FF80000000FFF00
0FFC0000001FFE00
0FFE0000003FFC00
05FF000000FFF800
01FF800003EFF000
01FFE0007F8FE000
01FFF803FF1FC000
01FFFE0FF83F0000
00FFFFCF007E0000
00FFFFFE00780000
00FFFFFF03E00000
007FFFFFFF000000
0019FFFFF0000000
00003FFE00000000
ENDCHAR
STARTCHAR 0056
ENCODING 86
SWIDTH 562 0
DWIDTH 54 0
BBX 53 93 0 -18
BITMAP
3F0000000001F0
7F0000000007F0
FF800000000FF8
FF800000001FF8
FDC00000001FF8
7CC00000001FF8
7C000000003FF8
7C000000003FF0
3C000000003FF0
3C000000007FF0
3C000000007FE0
1C000000007FE0
1C00000000FFE0
1C00000000FFC0
1C00000000FFC0
0C00000000FFC0
0C00000001FFC0
0C00000001FF80
0E00000001FF80
0600000001FF80
0600000003FF00
0600000003FF00
06F0000003FF00
07F8000003FF00
037C000007FE00
037C000007FE00
037C000007FE00
03BC000007FC00
019C00000FFC00
019C00000FFC00
018C00000FFC00
01CC00000FF800
00DC00000FF800
00DE00001FF800
00CE00001FF800
00CE00001FF000
004600001FF000
006600003FF000
006700003FF000
006700003FF000
002300003FE000
003300007FE000
003300007FE000
003300007FE000
001380007FC000
0013C000FFC000
0019C000FFC000
0019C000FFC000
0019C001FF8000
0019E001FF8000
0009E001FF8000
000DE003FF8000
000DE003FF0000
000DE003FF0000
0007E007FF0000
0006E007FF0000
0006E007FE0000
0006F00FFE0000
0002F00FFE0000
0003F00FFE0000
0003F01FFC0000
0003F01FFC0000
0001F03FFC0000
0001701FFC0000
0001F01FFC0000
0001F01FF80000
0001F01FF80000
0000C03FF80000
0000C03FF80000
0000C03FF00000
0000203FF00000
0000103FF00000
0000007FF00000
0000107FF00000
0000107FE00000
000008FFE00000
000008FFE00000
00000CFFE00000
00002CFFE00000
00002CFFE00000
000016FFC00000
000017FFC00000
00001BFFC00000
00001BFF800000
00000BFF800000
00000FFF800000
00000DFF800000
00000DFF800000
000007FF000000
000007FF000000
000007FE000000
000007FE000000
000003F8000000
ENDCHAR
STARTCHAR 0057
ENCODING 87
SWIDTH 1010 0
DWIDTH 97 0
BBX 90 95 3 -16
BITMAP
00000000003E000000000200
70000000007F800000003F00
F800000000FFC00000007F80
F800000000FFC0000000FF80
F800000001FFC0000000FFC0
F800000001FFC0000000FFC0
F800000001FFC0000001FFC0
F800000003FFC0000001FFC0
FC00000003FFC0000001FFC0
7C00000003FFC0000001FF80
7C00000003FFC0000003FF80
7C00000003FFC0000003FF80
7E00000003FFE0000003FF80
3E00000003FFE0000003FF00
3E00000003FFE0000007FF00
3E00000003FFE0000007FE00
3F00000003FFE0000007FE00
1F00000005FFE0000007FE00
1F80000005FFE0000007FE00
1F80000005FFE000000FFE00
1F80000005FFF000000FFC00
0FC000000CFFF000000FFC00
0FF000003CFFF000000FFC00
0FF000007DFFF000001FFC00
0FF000007DFFB000001FF800
07F000007DFF3800001FF800
07F000003FFFB800001FF800
07F000000D7FD800003FF000
07F000000DFF9800003FF000
03F0000019FF9800003FF000
03F0000011FF9C00003FF000
03F0000033FF9C00003FE000
03F0000035FF9C00007FE000
03F80000759FDC00007FE000
01F80000651FDC00007FE000
01FC00006621DE00007FC000
01F800006600DE0000FFC000
01FC00006C001E0000FFC000
01FC00004C001E0000FFC000
00FC00004C001E0000FF8000
00FC00004C001F0000FF8000
00FC00005C001F0001FF8000
00FC00005C001F0001FF8000
007C0000BC003F0001FF0000
007C0000FC003F8001FF0000
007C0001FC003F8003FF0000
007C0001FC003F8003FF0000
007C0001FC003F8003FE0000
003C0003FC003F8007FE0000
003C0003FC003FC007FE0000
003C0003FC003FC007FE0000
003C0003FC001FC007FC0000
003E0007FC001FC007FC0000
001E0007FC001FC00FFC0000
001E0007FC001FE00FFC0000
001E0007FC001FE00FF80000
001E0007FC001FE00FF80000
000E000FFC001FE00FF80000
000F000FFC001FF01FF80000
000F000FFC001FF01FF80000
000F000FF8001FF81FF00000
000F001FF8001FF81FF00000
0007801FF8000FFC1FF00000
0007801FF8000FFC1FF00000
0007841FF8000FFE3FE00000
0007841FF8000FFE3FE00000
0003C41FF8000FFF3FE00000
0003C21FF8000FFF3FE00000
0003C21FF0000FFF3FE00000
0003C21FF00007FF3FC00000
0003E31FF00007FFBFC00000
0001E33FE00007FFBFC00000
0001E33FE00007FFBFC00000
0001F7BFE00003FFFF800000
0001F5BFE00003FFFF800000
0000F7FFC00003FFFF800000
0000FFFFC00003FFFF800000
0000FFFFC00003FFFF800000
0000FFFFC00001FFFF000000
00007FFF800001FFFF000000
00007FFF800001FFFF000000
00007FFF800001FFFF000000
00007FFF800001FFFF000000
00003FFF000000FFFE000000
00003FFF000000FFFE000000
00003FFF000000FFFE000000
00001FFF000000FFFE000000
00001FFE000000FFFC000000
00001FFE0000007FFC000000
00001FFE0000007FFC000000
00000FFE0000007FFC000000
00000FFC0000003FF8000000
00000FFC0000003FF8000000
000007F80000001FF0000000
000001F00000000FE0000000
ENDCHAR
STARTCHAR 0058
ENCODING 88
SWIDTH 625 0
DWIDTH 60 0
BBX 58 93 1 -17
BITMAP
0780000000000200
1FC0000000000780
1FE0000000001F80
1FE0000000003FC0
1FF0000000007FC0
1FF800000000FFC0
1FF800000001FFC0
0FFC00000003FF80
0FFC00000007FF80
0FFE000000077F00
07FE00000006FE00
03FF00000007FE00
03FF8000000DFC00
01FF8000001BFC00
01FFC000001FF800
00FF80000017F800
00FFC000000FF000
007FE000001FE000
003FF000001FE000
003FF800003FC000
001FF800007F8000
001FFC00007F8000
000FFC0000FF0000
000FFC0001FF0000
0007FE0003FE0000
0007FE0003FC0000
0003FF0007FC0000
0001FF800FF80000
0001FF801FF80000
0000FFC03FF00000
00007FC07FE00000
00007FE0FFE00000
00007FF1FFC00000
00003FE1FF800000
00003FF3FF800000
00003FF3FF000000
00001FFBFF000000
00001FFFFE000000
00000FFFFE000000
00000FFFFC000000
00000FFFF8000000
000007FFF8000000
000007FFF0000000
000007FFF0000000
000003FFE0000000
000003FFE0000000
000003FFE0000000
000003FFE0000000
000003FFE0000000
000003FFF0000000
000004FFF0000000
000005FFF8000000
000005FFFC000000
00000FFFFC000000
00000FFFFE000000
00000FFFFF000000
000003FFFF800000
000003FFFF800000
000003FFFFC00000
000007CFFFC00000
000007C7FFE00000
00000781FFE00000
00000700FFF00000
00000F007FF00000
00000E003FF80000
00001C001FF80000
00001C001FFC0000
000038000FFC0000
0000380007FE0000
0000700007FF0000
0000700003FF0000
0000E00001FF8000
0060E00001FFC000
00E1C00000FFC000
00E3C00000FFE000
01C38000007FE000
01C78000007FF000
078F0000003FF800
039F0000001FF800
073E0000001FFC00
077E0000000FFE00
0EFC00000007FE00
1FFC00000007FF00
1FF800000003FF00
3FF800000001FF80
7FF000000001FF80
7FF000000000FFC0
FFE0000000007FC0
7FE0000000007FC0
7FE0000000003FC0
3FC0000000003F80
1F00000000001F00
0000000000000E00
ENDCHAR
STARTCHAR 0059
ENCODING 89
SWIDTH 614 0
DWIDTH 59 0
BBX 55 93 3 -17
BITMAP
60000000000006
F000000000007E
F80000000000FE
FC0000000000FE
FE0000000001FE
7E0000000001FC
7E0000000003F8
7F00000000337C
7D000000007FFC
FF80000000FEE4
7E80000000FFE0
7EC0000001EDC0
3F40000003FFC0
1F60000007DB80
0FE00000079F00
0FF000000F3F80
07F800001F3F00
07FC00001E7F00
03F800003E7E00
01F000003CFC00
01F800007CFC00
00FC000079F800
007C0000F9F000
007E0000F3F000
003F0001E7E000
001B0001C7C000
001F80038FC000
001DC0038F8000
001FC0079F0000
001EE0079F0000
001FE007BE0000
002F700FFC0000
0027F00DFC0000
0023B01FF80000
0001D81FF00000
0003FC1BF00000
000CECBFE00000
0000EEBFC00000
00007FFFC00000
00003BFF800000
00003FFF800000
00001FEF000000
00001FFF000000
00000FFE000000
000005FE000000
000001FC000000
000001FC000000
000001FC000000
000003FC000000
000003FC000000
000003FC000000
000003FC000000
000007FC000000
000007FC000000
000007FC000000
000007FC000000
000007FC000000
000007FC000000
000007FC000000
00000FFC000000
00000FFC000000
00000FFC000000
00001FFC000000
00001FFC000000
00001FFC000000
00001FFC000000
00000FFC000000
00000FFC000000
00000FFC000000
00000FFC000000
00000FFC000000
00000FFC000000
00000FFC000000
00000FFC000000
00000FFC000000
00000FFC000000
00000FFC000000
00000FFC000000
00000FFC000000
00000FFC000000
00000FFC000000
00000FFC000000
00000FFC000000
00000FFC000000
00000FFC000000
00000FFC000000
00000FFC000000
00000FFC000000
00000FFC000000
00000FFC000000
00000FF8000000
000007F8000000
000003E0000000
ENDCHAR
STARTCHAR 005A
ENCODING 90
SWIDTH 635 0
DWIDTH 61 0
BBX 56 93 3 -20
BITMAP
000000000000FC
0000000000001E
0000000008000E
0000000006C007
0C00000007FFFF
1800000003FFFF
3800000003FFFF
3C00000001FFFF
3C000000017FFF
3FFFFFFFFF03FF
3FFFFFFFFF01FE
3FFFFFFFFF01FE
1FFF800000007C
0FF800000000FC
000000000000F8
000000000000F0
000000000001F0
000000000003E0
000000000003C0
00000000000380
00000000000580
00000000000080
00000000000100
00000000000100
00000000000300
00000000000600
00000000000E00
00000000000E00
00000000000C00
00000000001C00
00000000003800
00000000007000
00000000007000
0000000000E000
0000000000C000
0000000001C000
00000000078000
000000000F0000
000000001F0000
000000003E0000
000000003E0000
000000003C0000
00000000180000
00000000780000
00000000F00000
00000001E00000
00000001E00000
00000001C00000
00000003C00000
00000007800000
0000000F000000
0000000F000000
0000001E000000
0000001C000000
0000003C000000
00000038000000
00000070000000
000000F0000000
000003E0000000
000003E0000000
000007C0000000
00000F80000000
00000F80000000
00001F00000000
00001E00000000
00003E00000000
00007C00000000
00007800000000
0000F800000000
0000F000000000
0001E000000000
0003E000000000
0007C000000000
00078000000000
000F0000000000
001F0000000000
101E0000000000
301E0000000000
301E00000003E0
701F00FFFEFFFC
60DF07FFFFFFFE
E1FFFFFFFFFFFF
E3FFFFFFFFFFFF
E7FFFFFFFFFFFF
FFFFFFFFFFFFFF
FFFFFFFFFFFFFF
FFFFFFFFFFFFFF
FFFFFFFFFFC1FF
7FFFFFFFB80000
7FFFFFFC000000
7BFFFFE0000000
F3FFFE00000000
60000000000000
ENDCHAR
ENDFONT
